<svg id="Layer_1" data-name="Layer 1" xmlns="http://www.w3.org/2000/svg" viewBox="0 0 982 56">
	<title>livestrong_logo_horizontal</title>
	<path d="M524.4,14.62c-7,0-11.23,6.37-11.23,13.93,0,7.94,4.47,13.65,11.23,13.65s11.44-6,11.44-13.82C535.85,19.94,531.42,14.62,524.4,14.62Zm-85.33-.68c-0.9,0-1.93.08-2.86,0.08V27.46h2c4.07,0,8.3-2.48,8.3-7.45C446.54,16.42,443.21,13.94,439.08,13.94Zm441.5-5.52c-10,0-17.09,9.2-17.09,19.18,0,10.88,7,19.51,17.09,19.51s17.15-8.62,17.15-19.51C897.72,17.17,891.78,8.42,880.57,8.42ZM31.39,51.86H2.54V5.05h6V46.23H31.39v5.63Zm50,0h-6V5.05h6V51.88Zm61.76,2.86L120.79,5.05h6.29l16.06,36.12,16-36.12h6.31Zm87.5-44.25h-21V24.84h18.23v5.3H209.61V46.38h21v5.5h-27V5.05h27v5.44Zm54.73,42.82a29.53,29.53,0,0,1-12.21-2.67l-0.65-12.25c1.76,1,7.47,4.72,12.74,4.72,3.62,0,6.36-1.74,6.36-4.16,0-7.51-19.52-7.72-19.52-22.41,0-7.65,5.95-12.86,15.1-12.86A26.28,26.28,0,0,1,298.82,6.3L299,17.21c-4.68-2.37-8.27-4.16-12.29-4.16-2.48,0-4.16,1.25-4.16,3.45,0,6.1,20,6.74,20,21.51C302.52,46.23,295.84,53.31,285.37,53.31Zm96.45-38.17H367.47V51.88H355.79V15.13H341.21V5.05h40.6V15.13Zm67.85,36.75-12.6-18h-0.85v18H424.54V5.05h12.33c9.63,0,19.81,3.84,19.81,14.06,0,5.76-3.23,9.9-8.25,12.71l14.1,20.06H449.66Zm74.88,1.43c-12.68,0-22.92-10.66-22.92-24.64,0-13.34,9.92-25,22.87-25,12.31,0,22.9,10.34,22.9,24C547.4,42,536.88,53.31,524.55,53.31Zm107.35,1.31L602,27.26V51.88H590.91V2.72l30,27.66V5.05h11V54.62Zm85.64-6.49a36.06,36.06,0,0,1-17.66,5.2c-14.42,0-24.48-9.95-24.48-23.84,0-13.37,9.47-25.8,24.89-25.8,5.13,0,9.81,1.73,14.73,4.3l-1.24,12.39c-5.19-4.6-8.58-6.52-13.64-6.52-8.31,0-13.09,7.27-13.09,15.53s5.05,13.73,13.54,13.73a16.5,16.5,0,0,0,5.33-.84V35.72h-8.42V26.18h20V48.12Zm45.9,4.59A3.72,3.72,0,1,1,767.14,49,3.75,3.75,0,0,1,763.43,52.71Zm69.4-4.7c-3.07,1.9-7.31,4.7-14.67,4.7a23.81,23.81,0,0,1-24.07-24.25c0-14.94,10.49-25.57,24.57-25.57a22.71,22.71,0,0,1,13.9,4.43L832,13.65a21.15,21.15,0,0,0-13.83-5.23c-10.75,0-18.2,7.9-18.2,19.25,0,11.54,7.44,19.44,18.07,19.44,7.24,0,11.67-3.33,15.14-5.93Zm47.75,4.7c-13.12,0-23-11-23-25.11,0-12.59,9.92-24.72,23-24.72,13.81,0,23,10.1,23,24.72C903.6,41.69,894.39,52.71,880.57,52.71Zm94.29-1.43-6.58-31.63-15.19,34.5-15.86-34.5L931.1,51.28h-5.6l10.17-49.5,17.42,38.87L970.31,1.77l10.24,49.5h-5.68Z" fill="#2e2e30"/>
	<path d="M733.2,9.53l1.12-.1a2.37,2.37,0,0,0,.37,1.1,2,2,0,0,0,.89.7,3.52,3.52,0,0,0,1.37.26,3.33,3.33,0,0,0,1.19-.2,1.7,1.7,0,0,0,.77-0.55,1.26,1.26,0,0,0,.25-0.76,1.16,1.16,0,0,0-.24-0.73,1.77,1.77,0,0,0-.8-0.52,15.6,15.6,0,0,0-1.59-.44,8.68,8.68,0,0,1-1.73-.56,2.46,2.46,0,0,1-.95-0.83,2,2,0,0,1-.32-1.11,2.26,2.26,0,0,1,.39-1.26A2.34,2.34,0,0,1,735,3.63a4.24,4.24,0,0,1,1.63-.31,4.45,4.45,0,0,1,1.76.32,2.6,2.6,0,0,1,1.16.94A2.72,2.72,0,0,1,740,6l-1.14.09a1.83,1.83,0,0,0-.61-1.28,2.43,2.43,0,0,0-1.57-.44,2.54,2.54,0,0,0-1.56.39,1.18,1.18,0,0,0-.49.95,1,1,0,0,0,.34.79,4.7,4.7,0,0,0,1.79.64,11.92,11.92,0,0,1,2,.57,2.69,2.69,0,0,1,1.16.91,2.28,2.28,0,0,1,.37,1.27,2.38,2.38,0,0,1-.41,1.34,2.7,2.7,0,0,1-1.17,1,4.12,4.12,0,0,1-1.73.35,5.1,5.1,0,0,1-2-.35,2.81,2.81,0,0,1-1.28-1.06A3,3,0,0,1,733.2,9.53Z" fill="#2e2e30"/>
	<path d="M741.89,12.4V3.47h1.77l2.11,6.32q0.3,0.88.43,1.32c0.1-.32.26-0.8,0.48-1.43l2.14-6.21h1.58V12.4h-1.13V4.93l-2.59,7.47h-1.07L743,4.8v7.6h-1.13Z" fill="#2e2e30"/>
</svg>